<svg xmlns="http://www.w3.org/2000/svg" viewBox="0 0 1641.73 812.15"><defs><style>.cls-1{fill:#fa915a;}</style></defs><g id="Layer_2" data-name="Layer 2"><g id="Layer_2-2" data-name="Layer 2"><g id="pear"><path class="cls-1" d="M1430.88,694.11c-.33,20.73,15,22.08,15,22.08s9-18-9.12-29.39c-8.61-5.4-10.2-5.74-9.5-4.61A22,22,0,0,1,1430.88,694.11Z"/><path class="cls-1" d="M1445.54,720.45l.18,5.26s-27.07.27-30.07,3.44-2.9-10.55-2.9-10.55S1413.08,716.55,1445.54,720.45Z"/><path class="cls-1" d="M1555.67,665.5c40.83-32.28,85.28-6.1,86,23.28,1.16,45.46-27.92,84.09-78.39,85.56s-136-30.75-107.91-65.87C1477.89,680.37,1483.89,722.25,1555.67,665.5Z"/></g><path id="bread" class="cls-1" d="M946.27,767.92c7.5-13.08.18-35.53-17.62-59.09-13.88,14.42-41.52,17.29-26.13,8,9.22-5.58,13.35-14.11,15.18-21.13a241,241,0,0,0-44.94-38.24c-2.38,20.85-27.61,40.53-18.8,23.69s-.5-33.06-2.59-36.39a247.88,247.88,0,0,0-44.52-18.45c2,20.79-18,45.18-13.13,26.91,3.88-14.66-3.53-26.53-8-32.06-33.16-6.13-59.52-1.32-68,13.46-14.2,24.77,27.26,68.16,89.84,104S932.07,792.69,946.27,767.92Z"/><g id="cheese"><path class="cls-1" d="M1067.72,655.51,995,741l84.15-41.53c-4.25-.23-7.3-1.45-7.55-3.28-.35-2.63,5.13-5.52,12.24-6.47,5.39-.72,10.16-.11,12.31,1.36l60-29.6C1128.3,642.1,1067.72,655.51,1067.72,655.51Zm-26.9,54.87c-3.9.52-7.22-.23-7.41-1.66s2.81-3,6.71-3.55,7.22.22,7.41,1.66S1044.72,709.86,1040.82,710.38Zm34.44-24.92c-3.65.49-6.78-.28-7-1.71s2.62-3,6.28-3.49,6.78.28,7,1.72S1078.92,685,1075.26,685.46Zm40.54-17.93c-6.31.84-11.64-.17-11.92-2.26s4.6-4.47,10.91-5.32,11.64.17,11.92,2.27S1122.1,666.68,1115.8,667.53Z"/><path class="cls-1" d="M1158.71,663.36l-60.78,30.21a9.06,9.06,0,0,1,.87,2.8A8.91,8.91,0,0,1,1082,701.5L992.55,746l.68,2.58a10.65,10.65,0,0,1,5.38,20.34l3.31,12.52L1167.58,729l-8.75-65.52Zm-138.85,83.37a5,5,0,1,1,4.31-5.63A5,5,0,0,1,1019.86,746.73Zm23.93,17.12a10.54,10.54,0,1,1,9-11.85A10.54,10.54,0,0,1,1043.79,763.85Zm29.37-34.35a7.84,7.84,0,1,1,6.73-8.81A7.84,7.84,0,0,1,1073.16,729.5Zm41.18,1.48a5.93,5.93,0,1,1,5.09-6.66A5.91,5.91,0,0,1,1114.34,731Zm19.67-14.1c-6.21.82-12-4-12.87-10.69s3.41-12.86,9.62-13.69,12,4,12.86,10.69S1140.22,716.05,1134,716.88Zm17.9,7.16a4,4,0,1,1,3.45-4.52A4,4,0,0,1,1151.91,724Z"/></g><g id="cart"><path id="cart-2" data-name="cart" class="cls-1" d="M663.9,24.66c2.41-18-17.83-27.75-31.66-23.78,0,0-17.66,1.5-20.16,29.86s-7.45,79.74-7.45,79.74l-381.18,189s-20.7,11.25-8.67,40.23l-91.25-3.09s-22,3.11-15.28,28.3,5.64,19.65,5.64,19.65l118,412.68S243,819.06,261.84,809.9c18.66-9.07,10.78-29.13,10.78-29.13l-114-399.5,71,4.65L338.73,766.6s1.84,13.83,23.53,17.18,336.65,26.59,336.65,26.59,28.2-3.62,21-34.23S595.74,311.29,595.74,311.29s-6.2-29.05-34.34-21.52S544,329.3,544,329.3L659.55,756.52l-277.4-25.75L268.54,334.37,643.28,150.43s12.69.08,13.51-30.45S663.9,24.66,663.9,24.66Z"/><path id="wheel1" class="cls-1" d="M154.29,433.92a78.66,78.66,0,1,0-53.94,97.28A78.65,78.65,0,0,0,154.29,433.92ZM38,467.25a42.32,42.32,0,1,1,52.35,29A42.32,42.32,0,0,1,38,467.25Z"/><path id="wheel2" class="cls-1" d="M232.34,707.66a78.65,78.65,0,1,0-53.94,97.28A78.65,78.65,0,0,0,232.34,707.66ZM116.05,741a42.32,42.32,0,1,1,52.34,29A42.31,42.31,0,0,1,116.05,741Z"/></g><g id="egg"><path class="cls-1" d="M1259.61,705c-6.12-15.48-10.34-29.61-11.8-38.54a72.08,72.08,0,0,0-9,3.11c-23.24,9.95-34.71,35.25-25.62,56.51s35.33,30.43,58.58,20.48a66.65,66.65,0,0,0,6.88-3.49C1273.45,736,1266.26,721.87,1259.61,705Z"/><path class="cls-1" d="M1366.15,731.45c8.16-17.13-12.16-43.57-32.3-59.27-2.51,8.76-7.9,21.82-15.12,35.93-7.79,15.22-15.83,28-21.6,34.88C1322.34,749.24,1358.06,748.44,1366.15,731.45Z"/><path class="cls-1" d="M1352.12,747.58c-41.37,8.67-59.75-4.65-59.75-4.65,20.94-32.68,20.43-39.32,20.43-39.32-25.08-7.65-48,0-48,0s5.61,23.49,18.38,39.32c0,0-19.91,24-59.23,3.64,0,0-53.62,3-27.07,18.83,0,0-.51,21.45,100.25,21.45,0,0,68.77,0,85.62-13.28S1352.12,747.58,1352.12,747.58ZM1291,770c-13.07,0-23.67,1.17-23.67-6.15s10.6-13.26,23.67-13.26,23.67,5.94,23.67,13.26S1304.09,770,1291,770Z"/></g></g></g></svg>