<svg xmlns="http://www.w3.org/2000/svg" viewBox="0 0 796.34 849.13"><defs><style>.cls-1{fill:#f2f2f2;}</style></defs><g id="Layer_2" data-name="Layer 2"><g id="Layer_1-2" data-name="Layer 1"><path id="egg" class="cls-1" d="M415,167.49c0,25.29-18.75,45.79-41.88,45.79s-41.87-20.5-41.87-45.79,17.87-72.85,41.87-72.85C396.14,94.64,415,142.2,415,167.49Z"/><g id="pear"><path class="cls-1" d="M215,9.33C195.2,15.66,198.83,30.6,198.83,30.6s20,2.75,24.92-18c2.36-9.89,2.17-11.5,1.32-10.47A22,22,0,0,1,215,9.33Z"/><path class="cls-1" d="M194.68,31.65l-4.92,1.86S180.84,8,176.87,6.12,185.94,0,185.94,0,188-.34,194.68,31.65Z"/><path class="cls-1" d="M282,118.38c43.66,28.34,33.09,78.83,5.5,89-42.7,15.65-88.6.48-106.16-46.86S166.93,21.79,209.19,37.16C243,49.46,205.26,68.56,282,118.38Z"/></g><path id="bread" class="cls-1" d="M653.55,49.48c-8.75-12.29-32.2-15-61-8.72,7.28,18.64-1.67,44.95-3.69,27.07-1.22-10.71-7.24-18-12.85-22.64A241,241,0,0,0,522.43,70c18,10.88,25.27,42,13.65,27S505.85,83.62,502,84.13a247.07,247.07,0,0,0-35.38,32.72c19.73,6.85,33.51,35.22,18.94,23.18-11.69-9.66-25.57-7.89-32.47-6.13-19.45,27.56-26.1,53.51-16.23,67.39,16.56,23.26,73.32,3.76,132.08-38.06S670.1,72.74,653.55,49.48Z"/><g id="cheese"><path class="cls-1" d="M695.06,95.17l-83.4,75.05,88.9-30c-4.18-.8-7-2.4-7-4.26,0-2.64,5.82-4.79,13-4.79,5.43,0,10.08,1.23,12,3l63.36-21.4C756.87,89.89,695.06,95.17,695.06,95.17ZM661.13,146c-3.94,0-7.13-1.17-7.13-2.62s3.19-2.63,7.13-2.63,7.12,1.18,7.12,2.63S665.06,146,661.13,146Zm37.44-20.13c-3.69,0-6.69-1.18-6.69-2.63s3-2.62,6.69-2.62,6.68,1.17,6.68,2.62S702.26,125.85,698.57,125.85Zm42.55-12.41c-6.36,0-11.52-1.71-11.52-3.82s5.16-3.82,11.52-3.82,11.52,1.71,11.52,3.82S747.48,113.44,741.12,113.44Z"/><path class="cls-1" d="M784.21,115,720,136.89a8.64,8.64,0,0,1,.49,2.89,8.91,8.91,0,0,1-17.35,2.86l-94.53,32.22.33,2.66a10.65,10.65,0,0,1,2.64,20.87l1.63,12.85,171.14-30V115.09ZM635.54,179.24a5,5,0,1,1,5-5A5,5,0,0,1,635.54,179.24ZM657,199.38a10.55,10.55,0,1,1,10.54-10.55A10.54,10.54,0,0,1,657,199.38Zm33.66-30.16a7.84,7.84,0,1,1,7.84-7.84A7.84,7.84,0,0,1,690.65,169.22Zm40.62,6.92a5.93,5.93,0,1,1,5.93-5.93A5.92,5.92,0,0,1,731.27,176.14Zm21.37-11.38c-6.26,0-11.34-5.5-11.34-12.29s5.08-12.3,11.34-12.3S764,145.68,764,152.47,758.9,164.76,752.64,164.76Zm16.79,9.47a4,4,0,1,1,4-4A4,4,0,0,1,769.43,174.23Z"/></g><g id="cart"><path id="cart-2" data-name="cart" class="cls-1" d="M31.72,89.3C15.11,82,.14,98.79.14,113.17c0,0-3.41,17.37,23.14,27.59s74.55,29.1,74.55,29.1l76.6,418.22s5.1,23,36.25,19.4L182.6,694.29s-3.07,22,23,22.47,20.42,0,20.42,0l428.94.22s24-4.62,20.42-25.25c-3.57-20.42-25-18.38-25-18.38l-415.15-.51,24-66.89H654.94s13.79,2,23-17.87S796.14,272,796.14,272s4.29-28.09-27.09-29.62-480.75-8.68-480.75-8.68-29.62-2-30.13,27.07,33.19,27.57,33.19,27.57L733.58,295,632.47,554.37H220.39L146.85,143.74s3.58-12.18-25.53-21.37S31.72,89.3,31.72,89.3Z"/><path id="wheel1" class="cls-1" d="M284.56,691.54a78.6,78.6,0,1,0,78.61,78.6A78.6,78.6,0,0,0,284.56,691.54Zm0,120.89a42.29,42.29,0,1,1,42.3-42.29A42.29,42.29,0,0,1,284.56,812.43Z"/><path id="wheel2" class="cls-1" d="M569,691.92a78.61,78.61,0,1,0,78.61,78.6A78.6,78.6,0,0,0,569,691.92Zm0,120.9a42.3,42.3,0,1,1,42.3-42.3A42.3,42.3,0,0,1,569,812.82Z"/></g></g></g></svg>